# xmcd
#
# Track frame offsets:
#	183
#	18958
#	32583
#	46383
#	58708
#	73083
#	86058
#	98508
#	105408
#	121158
#	132933
#	150903
#	163008
#	175083
#	185058
#	196608
#
# Disc length: 2771 seconds
#
# Revision: 0
# Processed by: cddbd v1.4PL0 Copyright (c) Steve Scherf et al.
# Submitted via: audiograbber 1.81.00
#
DISCID=c30ad110
DTITLE=GIORGIO GABER - Gli anni che verranno...
DYEAR=1900
DGENRE=POP
TTITLE0=E allora dai
TTITLE1=Parole parole
TTITLE2=Il ragazzo della via Gluck
TTITLE3=L'asse di equilibrio
TTITLE4=Gli anni che verranno
TTITLE5=Al bar del corso
TTITLE6=Suona chitarra
TTITLE7=O bella ciao
TTITLE8=La chiesa si rinnova
TTITLE9=Lo sai che sei bella
TTITLE10=La risposta al ragazzo di via Gluck
TTITLE11='a pizza
TTITLE12=Un amore vuol dire
TTITLE13=Mai mai Valentina
TTITLE14=Te lo leggo negli occhi
TTITLE15=Snoopy contro il Barone Rosso
EXTD=
EXTT0=
EXTT1=
EXTT2=
EXTT3=
EXTT4=
EXTT5=
EXTT6=
EXTT7=
EXTT8=
EXTT9=
EXTT10=
EXTT11=
EXTT12=
EXTT13=
EXTT14=
EXTT15=
PLAYORDER=
